<svg width="124" height="124" viewBox="0 0 124 124" fill="none" xmlns="http://www.w3.org/2000/svg">
<g id="game-icons:podium-winner">
<path id="Vector" d="M62 6.05469C59.1921 6.05469 56.4297 9.15469 56.4297 13.5625C56.4297 17.9703 59.1921 21.0703 62 21.0703C64.8079 21.0703 67.5703 17.9703 67.5703 13.5625C67.5703 9.15469 64.8079 6.05469 62 6.05469ZM36.8244 6.7752L32.9256 8.72481C36.5807 16.0352 45.3668 22.4835 52.8305 26.7537L56.2684 71.4453H59.8203V46.5H64.1797V71.4453H67.7316L71.1695 26.7537C78.6332 22.4835 87.4193 16.0352 91.0744 8.72481L87.1756 6.7752C82.3537 14.0166 76.3036 18.6782 69.8994 20.7664C68.13 23.56 65.3301 25.4297 62 25.4297C58.6699 25.4297 55.8702 23.56 54.1006 20.7661C47.6964 18.6785 41.6463 14.0166 36.8244 6.7752ZM40.9297 75.8047V99.0547H6.05469V117.945H117.945V110.68H83.0703V75.8047H40.9297Z" fill="#2984EC"/>
</g>
</svg>
