<svg width="124" height="124" viewBox="0 0 124 124" fill="none" xmlns="http://www.w3.org/2000/svg">
<g id="mdi:like">
<path id="Vector" d="M118.834 51.6665C118.834 48.9259 117.745 46.2976 115.807 44.3597C113.869 42.4219 111.241 41.3332 108.5 41.3332H75.847L80.807 17.7215C80.9103 17.2048 80.962 16.6365 80.962 16.0682C80.962 13.9498 80.0837 11.9865 78.6887 10.5915L73.212 5.1665L39.2153 39.1632C37.3037 41.0748 36.167 43.6582 36.167 46.4998V98.1665C36.167 100.907 37.2557 103.535 39.1936 105.473C41.1314 107.411 43.7598 108.5 46.5003 108.5H93.0003C97.2887 108.5 100.957 105.917 102.507 102.197L118.11 65.7715C118.575 64.5832 118.834 63.3432 118.834 61.9998V51.6665ZM5.16699 108.5H25.8337V46.4998H5.16699V108.5Z" fill="#2984EC"/>
</g>
</svg>
