<svg width="43" height="43" viewBox="0 0 43 43" fill="none" xmlns="http://www.w3.org/2000/svg">
<g id="settings button">
<path id="Vector" fill-rule="evenodd" clip-rule="evenodd" d="M16.1253 5.77424C16.1252 5.36845 16.2629 4.97465 16.5158 4.6573C16.7687 4.33995 17.1219 4.11786 17.5174 4.02737C20.1388 3.43108 22.8606 3.4323 25.4814 4.03095C25.8773 4.12109 26.2309 4.34304 26.4841 4.66042C26.7374 4.9778 26.8753 5.37179 26.8753 5.77782V9.08703C26.8753 9.40153 26.9581 9.71049 27.1154 9.98285C27.2726 10.2552 27.4988 10.4814 27.7712 10.6386C28.0435 10.7959 28.3525 10.8787 28.667 10.8787C28.9815 10.8787 29.2905 10.7959 29.5628 10.6386L32.4313 8.98132C32.7832 8.77819 33.1937 8.70071 33.5954 8.76159C33.9972 8.82247 34.3663 9.01809 34.6422 9.31636C36.4639 11.2906 37.8232 13.6457 38.6215 16.2107C38.7418 16.5987 38.7266 17.0161 38.5785 17.3944C38.4304 17.7727 38.1581 18.0894 37.8063 18.2926L34.9378 19.9481C34.6655 20.1054 34.4393 20.3315 34.2821 20.6039C34.1248 20.8763 34.0421 21.1852 34.0421 21.4997C34.0421 21.8142 34.1248 22.1231 34.2821 22.3955C34.4393 22.6679 34.6655 22.894 34.9378 23.0513L37.8045 24.705C38.1559 24.9081 38.4279 25.2245 38.576 25.6024C38.7241 25.9803 38.7395 26.3973 38.6197 26.7851C37.8283 29.3543 36.4689 31.7124 34.6422 33.6848C34.366 33.9828 33.9968 34.1781 33.5951 34.2386C33.1934 34.2992 32.783 34.2214 32.4313 34.0181L29.5628 32.3608C29.2905 32.2035 28.9815 32.1207 28.667 32.1207C28.3525 32.1207 28.0435 32.2035 27.7712 32.3608C27.4988 32.518 27.2726 32.7442 27.1154 33.0165C26.9581 33.2889 26.8753 33.5979 26.8753 33.9124V37.2269C26.8749 37.6327 26.7368 38.0263 26.4836 38.3433C26.2303 38.6603 25.877 38.882 25.4814 38.972C22.8601 39.5683 20.1382 39.5671 17.5174 38.9684C17.1219 38.878 16.7687 38.6559 16.5158 38.3385C16.2629 38.0212 16.1252 37.6274 16.1253 37.2216V33.9124C16.1253 33.5979 16.0425 33.2889 15.8853 33.0165C15.728 32.7442 15.5018 32.518 15.2295 32.3608C14.9571 32.2035 14.6481 32.1207 14.3336 32.1207C14.0191 32.1207 13.7102 32.2035 13.4378 32.3608L10.5694 34.0181C10.2175 34.2212 9.80696 34.2987 9.40522 34.2378C9.00348 34.1769 8.63437 33.9813 8.35845 33.683C7.4491 32.7001 6.65281 31.6184 5.98449 30.458C5.31392 29.2988 4.77545 28.068 4.37916 26.7887C4.25888 26.4007 4.27404 25.9833 4.42217 25.605C4.57029 25.2267 4.84258 24.91 5.19436 24.7068L8.06103 23.0513C8.33338 22.894 8.55953 22.6679 8.71677 22.3955C8.87401 22.1231 8.95679 21.8142 8.95679 21.4997C8.95679 21.1852 8.87401 20.8763 8.71677 20.6039C8.55953 20.3315 8.33338 20.1054 8.06103 19.9481L5.19795 18.2944C4.84622 18.0916 4.57382 17.7753 4.42538 17.3973C4.27694 17.0194 4.26128 16.6023 4.38095 16.2143C5.1726 13.6457 6.532 11.2882 8.35845 9.31636C8.63426 9.01852 9.00304 8.82316 9.40438 8.76229C9.80573 8.70142 10.2159 8.77865 10.5676 8.98132L13.4378 10.6386C13.7102 10.7959 14.0191 10.8787 14.3336 10.8787C14.6481 10.8787 14.9571 10.7959 15.2295 10.6386C15.5018 10.4814 15.728 10.2552 15.8853 9.98285C16.0425 9.71049 16.1253 9.40153 16.1253 9.08703V5.77424ZM21.5003 26.8747C22.9259 26.8747 24.293 26.3084 25.301 25.3004C26.309 24.2924 26.8753 22.9252 26.8753 21.4997C26.8753 20.0742 26.309 18.707 25.301 17.699C24.293 16.691 22.9259 16.1247 21.5003 16.1247C20.0748 16.1247 18.7076 16.691 17.6996 17.699C16.6916 18.707 16.1253 20.0742 16.1253 21.4997C16.1253 22.9252 16.6916 24.2924 17.6996 25.3004C18.7076 26.3084 20.0748 26.8747 21.5003 26.8747Z" fill="#50585A"/>
</g>
</svg>
