<svg width="34" height="26" viewBox="0 0 34 26" fill="none" xmlns="http://www.w3.org/2000/svg">
<g id="Mask group">
<mask id="mask0_197_48" style="mask-type:luminance" maskUnits="userSpaceOnUse" x="0" y="0" width="34" height="26">
<g id="Group">
<g id="Group_2">
<path id="Vector" d="M6.22004 1.6785C10.8389 1.4485 14.4317 1.3335 16.9984 1.3335C19.565 1.3335 23.1592 1.44877 27.7809 1.67933C28.9903 1.73969 30.1367 2.23689 31.0072 3.07859C31.8777 3.9203 32.4132 5.04932 32.5142 6.256C32.7259 8.78377 32.8317 11.0107 32.8317 12.9368C32.8317 14.8857 32.7234 17.1435 32.5067 19.7102C32.4061 20.903 31.8809 22.0201 31.0266 22.8586C30.1722 23.6971 29.0454 24.2012 27.8509 24.2793C23.9003 24.5377 20.2828 24.6668 16.9984 24.6668C13.715 24.6668 10.0989 24.5377 6.15004 24.2793C4.95593 24.2012 3.82943 23.6975 2.97512 22.8595C2.12081 22.0216 1.59537 20.905 1.49421 19.7127C1.27476 17.1266 1.16504 14.8679 1.16504 12.9368C1.16504 11.0285 1.27198 8.80072 1.48587 6.2535C1.58727 5.04712 2.12293 3.9185 2.99341 3.07713C3.86389 2.23577 5.01008 1.73881 6.21921 1.6785H6.22004Z" fill="white" stroke="white" stroke-width="2" stroke-linejoin="round"/>
<path id="Vector_2" d="M14.5 9.34169V16.6717C14.4999 16.8008 14.5349 16.9275 14.6011 17.0383C14.6673 17.1491 14.7623 17.2399 14.876 17.301C14.9897 17.3621 15.1178 17.3913 15.2468 17.3854C15.3757 17.3795 15.5007 17.3388 15.6083 17.2675L21.1058 13.6342C21.2041 13.5694 21.2848 13.4814 21.3408 13.3779C21.3968 13.2744 21.4264 13.1586 21.4269 13.0409C21.4274 12.9233 21.3988 12.8073 21.3437 12.7033C21.2885 12.5994 21.2085 12.5106 21.1108 12.445L15.6125 8.74836C15.505 8.67615 15.38 8.63451 15.2507 8.62789C15.1214 8.62127 14.9927 8.64992 14.8785 8.71078C14.7642 8.77164 14.6686 8.86241 14.6019 8.97339C14.5353 9.08438 14.5 9.21139 14.5 9.34086V9.34169Z" fill="black" stroke="black" stroke-width="1.7145" stroke-linejoin="round"/>
</g>
</g>
</mask>
<g mask="url(#mask0_197_48)">
<path id="Vector_3" d="M-3 -7H37V33H-3V-7Z" fill="#A3ACAE"/>
</g>
</g>
</svg>
